<svg xmlns="http://www.w3.org/2000/svg" width="47.632" height="30.437" viewBox="0 0 47.632 30.437">
  <g id="Group_304" data-name="Group 304" transform="translate(0.101 0.1)">
    <path id="Path_262" data-name="Path 262" d="M45,37.849l2.149-3.7L60.714,54.315H55.406Z" transform="translate(-13.592 -24.675)" fill="none" stroke="#ee3038" stroke-width="0.2"/>
    <path id="Path_260" data-name="Path 260" d="M533.145,3286.415l-8.29,12.364h15.62Z" transform="translate(-524.065 -3269.366)" fill="none" stroke="#ee3038" stroke-width="0.2"/>
    <path id="Path_259" data-name="Path 259" d="M31.641,30.905l3.751-5.995,4.277,5.995-4.277,4.244Z" transform="translate(-12.232 -23.733)" fill="none" stroke="#ee3038" stroke-width="0.2"/>
    <path id="Path_56" data-name="Path 56" d="M57.4,52.965,44.32,32.555a.593.593,0,0,0-.465-.291.518.518,0,0,0-.465.291l-2.035,3.024-7.5-11.688a.593.593,0,0,0-.465-.291.518.518,0,0,0-.465.291L20.887,42.614l-1.57-2.5a.572.572,0,0,0-.814-.174l-.174.174-8.2,12.793a.572.572,0,0,0,.174.814c.058.058.174.058.291.116H56.88a.549.549,0,0,0,.581-.581,2.519,2.519,0,0,0-.058-.291ZM33.389,25.286l3.373,5.233L33.389,33.95,30.016,30.52ZM11.7,52.674l7.152-11.106L26,52.674Zm15.642,0-5.757-9.013,7.792-12.095,3.605,3.663a.528.528,0,0,0,.407.174h0a.528.528,0,0,0,.407-.174L37.4,31.566l3.431,5.408h0l10.06,15.7Zm24.946,0L42.053,36.625l1.8-2.675L55.892,52.674Z" transform="translate(-10.031 -23.6)" fill="#ee3038" stroke="#ee3038" stroke-width="0.2"/>
    <g id="Group_70" data-name="Group 70" transform="translate(9.733 1.199)">
      <path id="Path_57" data-name="Path 57" d="M27.191,27.121l.131.615a.263.263,0,0,0,.313.2l2.912-.639a.263.263,0,0,1,.278.4L26.81,33.969a.264.264,0,0,0,.08.363l.53.339a.263.263,0,0,0,.363-.08L31.8,28.321a.263.263,0,0,1,.479.085l.639,2.912a.263.263,0,0,0,.315.2l.613-.139a.262.262,0,0,0,.2-.313l-1.14-5.2a.264.264,0,0,0-.313-.2l-5.2,1.14A.263.263,0,0,0,27.191,27.121Z" transform="translate(-26.769 -25.663)" fill="#ee3038" stroke="#ee3038" stroke-width="0.2"/>
    </g>
  </g>
</svg>
