<svg xmlns="http://www.w3.org/2000/svg" width="34.936" height="37.573" viewBox="0 0 34.936 37.573">
  <path id="Path_370" data-name="Path 370" d="M40.494,32.858A10.664,10.664,0,1,0,51.158,43.521,10.676,10.676,0,0,0,40.494,32.858Zm0,20.035a9.371,9.371,0,1,1,9.371-9.371A9.382,9.382,0,0,1,40.494,52.892ZM41.14,43.2V37.058a.646.646,0,0,0-1.293,0v6.463a.645.645,0,0,0,.256.515l5.119,3.878A.646.646,0,1,0,46,46.885ZM53.959,25.57h-4.3V23.389a2.3,2.3,0,0,0-4.605,0V25.57H35.747V23.389a2.3,2.3,0,0,0-4.605,0V25.57H27.028a3.9,3.9,0,0,0-3.9,3.882V54.577a3.9,3.9,0,0,0,3.9,3.882h26.93a3.9,3.9,0,0,0,3.9-3.882V29.452A3.9,3.9,0,0,0,53.959,25.57Zm-7.607-2.181a1.01,1.01,0,1,1,2.02,0v5.655a1.01,1.01,0,1,1-2.02,0Zm-13.917,0a1.01,1.01,0,1,1,2.02,0v5.655a1.01,1.01,0,1,1-2.02,0ZM56.569,54.577a2.6,2.6,0,0,1-2.61,2.589H27.029a2.6,2.6,0,0,1-2.61-2.589V29.452a2.6,2.6,0,0,1,2.61-2.589h4.114v2.181a2.3,2.3,0,0,0,4.605,0V26.863H45.06v2.181a2.3,2.3,0,0,0,4.605,0V26.863h4.3a2.6,2.6,0,0,1,2.61,2.589V54.577Z" transform="translate(-23.025 -20.986)" fill="#ee3038" stroke="#ee3038" stroke-width="0.2"/>
</svg>
