<svg xmlns="http://www.w3.org/2000/svg" width="35.642" height="35.861" viewBox="0 0 35.642 35.861">
  <path id="Path_374" data-name="Path 374" d="M31.691,0a5.8,5.8,0,0,1,5.952,5.738A7.935,7.935,0,0,1,37.178,8.3q-2.389,4.961-4.8,9.929a.764.764,0,0,1-.673.415H22.049a3.229,3.229,0,1,0,0,6.455h4.827a5.382,5.382,0,1,1,0,10.758H8.683a.763.763,0,0,1-.673-.415C6.2,31.721,4.314,28.023,2.522,24.3A8.436,8.436,0,0,1,2,21.516a6.547,6.547,0,0,1,6.694-6.455,6.528,6.528,0,0,1,6.671,6.455,8.481,8.481,0,0,1-.522,2.779q-2.482,5.063-4.989,10.131H26.875a3.947,3.947,0,1,0,0-7.889H22.049a4.665,4.665,0,1,1,0-9.324H30.53c-1.431-2.971-2.9-5.933-4.3-8.909a8,8,0,0,1-.464-2.566A5.786,5.786,0,0,1,31.691,0Zm0,1.434a4.256,4.256,0,0,0-4.444,4.3A8.133,8.133,0,0,0,27.618,7.8c1.353,2.81,2.721,5.619,4.084,8.427,1.33-2.822,2.708-5.551,4.084-8.427a8.1,8.1,0,0,0,.371-2.062A4.276,4.276,0,0,0,31.691,1.434ZM31.7,3.227a2.567,2.567,0,0,1,2.6,2.51,2.6,2.6,0,0,1-5.2,0A2.567,2.567,0,0,1,31.7,3.227Zm0,1.434a1.076,1.076,0,1,0,1.114,1.076A1.084,1.084,0,0,0,31.7,4.662ZM8.694,16.5a5.034,5.034,0,0,0-5.209,5.02,8.184,8.184,0,0,0,.429,2.264q2.371,4.843,4.769,9.682c1.558-3.241,3.224-6.508,4.769-9.682a8.215,8.215,0,0,0,.429-2.264A5.013,5.013,0,0,0,8.694,16.5Zm-.012,1.793a3.229,3.229,0,1,1,0,6.455,3.229,3.229,0,1,1,0-6.455Zm0,1.434a1.794,1.794,0,1,0,1.856,1.793A1.815,1.815,0,0,0,8.683,19.723Z" transform="translate(-2)" fill="#ee3038"/>
</svg>
