<svg xmlns="http://www.w3.org/2000/svg" width="268.097" height="141.296" viewBox="0 0 268.097 141.296">
  <g id="Group_231" data-name="Group 231" transform="translate(944.095 -280.169)">
    <path id="Path_218" data-name="Path 218" d="M611.326,312.451q9.741,9.7,19.449,19.38,9.717,9.7,19.414,19.422,9.681,9.68,19.367,19.356c6.459,6.47,12.9,12.954,19.414,19.494a3.081,3.081,0,0,1-.433.11c-.181.015-.364,0-.546,0q-16.428,0-32.857,0c-1.156,0-.841.136-1.689-.707q-5.255-5.228-10.488-10.478-3.779-3.779-7.557-7.561-2.952-2.95-5.91-5.895c-1.967-1.968-3.923-3.947-5.89-5.915-1.6-1.6-3.211-3.188-4.812-4.786-1.049-1.047-2.085-2.107-3.134-3.154s-2.108-2.083-3.156-3.13c-1.122-1.121-2.235-2.251-3.354-3.375-.569-.571-1.143-1.137-1.713-1.708q-1.846-1.85-3.689-3.7L597.8,333.83q-1.679-1.687-3.359-3.372a2.139,2.139,0,0,0-.7-.569c-.165.146-.344.288-.5.448q-4.721,4.716-9.439,9.436-1.656,1.656-3.312,3.311c-.164.163-.34.313-.494.454a1.042,1.042,0,0,1-.672-.423q-2.043-2.038-4.081-4.081c-1.045-1.051-2.077-2.114-3.124-3.162-1.121-1.121-2.256-2.228-3.38-3.347-.977-.972-1.945-1.953-2.92-2.927-.754-.753-1.514-1.5-2.268-2.254a10.849,10.849,0,0,1-1.019-1.112c.245-.273.456-.532.691-.766,1.343-1.341,2.7-2.671,4.038-4.013,1.378-1.379,2.744-2.77,4.121-4.149,1.268-1.269,2.548-2.525,3.815-3.8,1.377-1.381,2.741-2.774,4.116-4.156,1.063-1.069,2.136-2.129,3.2-3.195s2.129-2.136,3.194-3.2q.964-.967,1.927-1.933,1.214-1.212,2.432-2.42,2.135-2.111,4.275-4.218c.684-.677,1.357-1.363,2.037-2.044q1.156-1.159,2.314-2.315,1.625-1.629,3.248-3.26,1.515-1.517,3.034-3.031,1.186-1.185,2.371-2.37.525-.523,1.062-1.034a1.454,1.454,0,0,1,.254-.159,1.1,1.1,0,0,1,.218.128q8.571,8.566,17.174,17.173c-.184.207-.327.385-.487.546q-3.42,3.423-6.844,6.843t-6.842,6.845A1.528,1.528,0,0,0,611.326,312.451Z" transform="translate(-1384.083)" fill="#90a4ae"/>
    <path id="Path_219" data-name="Path 219" d="M-105.062,470.171c-.866.762-1.653,1.623-2.48,2.442s-1.659,1.651-2.487,2.479-1.654,1.657-2.481,2.485-1.654,1.657-2.482,2.484-1.658,1.652-2.487,2.479-1.653,1.658-2.484,2.482-1.634,1.67-2.5,2.48a4.991,4.991,0,0,1-1.084-.926c-.776-.767-1.532-1.555-2.3-2.327-1.028-1.029-2.065-2.05-3.095-3.077-.754-.752-1.5-1.511-2.254-2.265q-1.6-1.6-3.2-3.2-1.627-1.626-3.255-3.25c-.733-.734-1.464-1.47-2.22-2.228a1.982,1.982,0,0,1,.238-.41c.969-.979,1.946-1.949,2.92-2.923q1.048-1.047,2.093-2.1,1.209-1.215,2.416-2.433,1.568-1.574,3.139-3.145c1.049-1.045,2.106-2.082,3.153-3.13,1.322-1.324,2.636-2.656,3.956-3.982q2.034-2.045,4.072-4.087c.7-.7,1.4-1.393,2.1-2.091q2.18-2.174,4.358-4.35c1.377-1.38,2.743-2.771,4.122-4.148,1.25-1.248,2.516-2.481,3.768-3.728,1.159-1.155,2.305-2.323,3.464-3.479,1.03-1.027,2.072-2.041,3.1-3.067.719-.714,1.426-1.44,2.143-2.156,1.084-1.083,2.174-2.16,3.257-3.244q1.6-1.6,3.187-3.208a6.118,6.118,0,0,1,.866-.8c.148.12.277.207.385.315q8.385,8.375,16.764,16.756a1.687,1.687,0,0,1,.178.263,1.575,1.575,0,0,1-.51.677q-1.4,1.412-2.812,2.815l-10.756,10.758q-1.49,1.489-2.982,2.976c-.072.072-.137.15-.234.258a2.4,2.4,0,0,0,.251.376q1.535,1.554,3.08,3.1,2.456,2.453,4.916,4.9,2.18,2.178,4.354,4.361,2.535,2.539,5.071,5.076c1.011,1.011,2.031,2.013,3.042,3.025q3.417,3.422,6.827,6.851a1.2,1.2,0,0,1,.134.225,4.3,4.3,0,0,1-.753.866q-3.8,3.808-7.62,7.6-2.924,2.922-5.835,5.857-1.348,1.353-2.7,2.7a1.4,1.4,0,0,1-.243.194.37.37,0,0,1-.438-.018,1.883,1.883,0,0,1-.23-.209c-1.611-1.623-3.216-3.253-4.834-4.87s-3.254-3.216-4.872-4.833c-1.912-1.911-3.81-3.836-5.719-5.75-1.083-1.086-2.18-2.158-3.266-3.241-1.067-1.065-2.126-2.138-3.192-3.2q-2.646-2.648-5.3-5.29A1.079,1.079,0,0,0-105.062,470.171Z" transform="translate(-738.814 -126.397)" fill="#90a4ae"/>
    <path id="Path_220" data-name="Path 220" d="M-620.674,1192.688a.714.714,0,0,1-.223.089q-48.732.005-97.463,0a.615.615,0,0,1-.2-.072.478.478,0,0,1-.015-.089.136.136,0,0,1,.019-.073,2.347,2.347,0,0,1,.2-.241q12.132-12.125,24.267-24.246a1.29,1.29,0,0,1,.229-.14c.643.521,1.185,1.154,1.78,1.728.581.559,1.144,1.136,1.715,1.707l1.785,1.785a1.809,1.809,0,0,0,.417-.221c.356-.343.689-.708,1.038-1.058q2.23-2.236,4.464-4.468c1.321-1.325,2.636-2.657,3.959-3.981,1.139-1.14,2.274-2.284,3.434-3.4.446-.43.956-.789,1.376-1.256.485-.539,1.031-1.023,1.548-1.532q1.221-1.2,2.438-2.411c.129-.128.243-.271.364-.407a2.886,2.886,0,0,1,.7-.6,1.546,1.546,0,0,1,.7.5c1.3,1.305,2.594,2.624,3.9,3.93.752.754,1.523,1.489,2.277,2.242.735.734,1.455,1.484,2.19,2.219.752.754,1.517,1.5,2.27,2.248s1.5,1.514,2.252,2.267c.419.419.849.828,1.31,1.278.432-.4.838-.755,1.224-1.132s.76-.781,1.141-1.171a12.968,12.968,0,0,1,1.1-1.1c.422-.339.687-.851,1.244-1.116,9.49,9.513,19.018,18.982,28.485,28.512C-620.705,1192.519-620.7,1192.607-620.674,1192.688Z" transform="translate(-207.177 -802.573)" fill="#90a4ae"/>
    <path id="Path_221" data-name="Path 221" d="M826.208,1368.527a1.818,1.818,0,0,1,.25.165q10.474,10.477,20.944,20.958c.07.071.126.156.232.289a2.364,2.364,0,0,1-.387.109c-.181.016-.364.006-.546.006H813.94c-1.032,0-1.033,0-1.767-.732q-1.408-1.4-2.812-2.814a1.327,1.327,0,0,1-.5-.74q8.507-8.509,17.057-17.057A1.71,1.71,0,0,1,826.208,1368.527Z" transform="translate(-1610.377 -999.837)" fill="#90a4ae"/>
    <path id="Path_222" data-name="Path 222" d="M2182.846,1825.621a1.554,1.554,0,0,1-.111-.869c-.006-1.873.006-3.746-.009-5.619a10.107,10.107,0,0,0-.127-1.63,3.746,3.746,0,0,0-.4-1.17,1.435,1.435,0,0,0-2.14-.511,5.2,5.2,0,0,0-1.56,1.718,1.213,1.213,0,0,0-.092.6c-.007,1.353,0,2.706,0,4.059q0,1.288,0,2.576c0,.182,0,.364-.018.545a.393.393,0,0,1-.322.389,2.654,2.654,0,0,1-1.237-.008.367.367,0,0,1-.286-.333c-.018-.181-.02-.363-.02-.545q0-5.034,0-10.068c0-.854.14-.979,1.006-.937l.078,0c.481.038.592.147.612.614.006.13,0,.26,0,.39s.011.257.017.37c.177.108.264-.008.344-.1a5.968,5.968,0,0,1,1.175-1.017,3.014,3.014,0,0,1,4.147,1.016c.086.158.183.309.3.512.156-.137.285-.247.412-.361.405-.364.785-.761,1.219-1.086a2.969,2.969,0,0,1,4.408,1.232,5.085,5.085,0,0,1,.425,1.494,15.673,15.673,0,0,1,.122,1.71c.014,2.055,0,4.111.009,6.166,0,.893-.106,1.011-1.045,1.006a2.562,2.562,0,0,1-.388-.027c-.331-.053-.461-.186-.484-.506-.015-.207-.007-.416-.007-.624q0-2.927,0-5.854a5.631,5.631,0,0,0-.176-1.7,3.311,3.311,0,0,0-.334-.783,1.429,1.429,0,0,0-2.1-.46,5.508,5.508,0,0,0-1.018.956,1.867,1.867,0,0,0-.66,1.817q0,3.083,0,6.166c0,.925-.115,1.038-1.021,1.015a2.843,2.843,0,0,1-.464-.047A1.334,1.334,0,0,1,2182.846,1825.621Z" transform="translate(-2866.798 -1408.743)" fill="#90a4ae"/>
    <path id="Path_223" data-name="Path 223" d="M905.788,1813.905c.022.4.045.807.067,1.2.2.063.269-.07.358-.154.208-.2.4-.408.615-.6a3.084,3.084,0,0,1,2.283-.82,2.764,2.764,0,0,1,2.375,1.4l.352.583c.191-.195.354-.352.508-.518a5.3,5.3,0,0,1,1.452-1.166,2.935,2.935,0,0,1,3.751.919,4.373,4.373,0,0,1,.745,2.109,17.554,17.554,0,0,1,.1,1.788c.013,1.95.005,3.9,0,5.851,0,.234,0,.469-.026.7a.417.417,0,0,1-.4.406,6.593,6.593,0,0,1-1.009.006c-.337-.03-.454-.175-.477-.505-.014-.207-.007-.416-.007-.624q0-3,0-6.007a4.771,4.771,0,0,0-.192-1.619,3.12,3.12,0,0,0-.458-.892,1.388,1.388,0,0,0-1.824-.352,2.95,2.95,0,0,0-.566.408,5.819,5.819,0,0,0-.534.567,2.033,2.033,0,0,0-.71,1.959q0,3.081,0,6.163c0,.69.071.942-.936.939-.052,0-.1,0-.156,0-.671-.028-.764-.112-.766-.779-.006-2,.006-4-.008-6.007a10.016,10.016,0,0,0-.129-1.551,3.423,3.423,0,0,0-.343-1.028,1.461,1.461,0,0,0-2.242-.55,5.443,5.443,0,0,0-.593.5,3.228,3.228,0,0,0-.258.292,2.091,2.091,0,0,0-.758,2.021q0,3.042,0,6.085c0,.852.063,1.037-1.09,1.015-.831-.016-.8-.293-.8-.845q.005-5.149,0-10.3c0-.594.061-.811.829-.809A1.256,1.256,0,0,1,905.788,1813.905Z" transform="translate(-1697.891 -1408.619)" fill="#90a4ae"/>
    <path id="Path_224" data-name="Path 224" d="M-937.009,1819.935c-.071.267-.15.532-.212.8q-.711,3.076-1.418,6.153c-.194.839-.276.908-1.159.921-.285,0-.571-.015-.856-.034a.633.633,0,0,1-.606-.515c-.042-.15-.086-.3-.125-.451q-1.282-4.862-2.561-9.726a4.86,4.86,0,0,1-.146-.762c-.023-.245.1-.377.36-.424a2.319,2.319,0,0,1,.387-.038c1.1-.01,1.11.049,1.338.98.59,2.4,1.2,4.789,1.8,7.183.067.266.149.528.268.949.115-.314.192-.47.231-.636q.864-3.721,1.718-7.444c.012-.051.018-.1.03-.153.2-.83.291-.9,1.17-.878.13,0,.259.016.388.03a.484.484,0,0,1,.454.365c.044.15.085.3.122.451q.926,3.706,1.849,7.413a1.82,1.82,0,0,0,.3.77c.087-.282.164-.5.22-.722q.932-3.745,1.86-7.49c.189-.759.262-.811,1.068-.818.895-.008,1.029.143.806,1-.6,2.312-1.222,4.621-1.836,6.931q-.41,1.544-.826,3.087-.06.226-.123.451a.574.574,0,0,1-.562.455,10.936,10.936,0,0,1-1.168.014c-.55-.034-.661-.133-.8-.67-.206-.779-.4-1.561-.592-2.343q-.556-2.232-1.108-4.464C-936.776,1820.169-936.778,1820-937.009,1819.935Z" transform="translate(0 -1410.784)" fill="#90a4ae"/>
    <path id="Path_225" data-name="Path 225" d="M-545.174,1824.869c.064-.221.138-.44.189-.664q.861-3.72,1.715-7.441c.029-.126.063-.252.091-.378a.537.537,0,0,1,.543-.465c.285-.01.571-.01.856,0a.537.537,0,0,1,.538.468c.243.983.5,1.963.744,2.946q.632,2.532,1.257,5.067c.042.167.034.368.3.442.222-.882.445-1.76.663-2.64q.686-2.76,1.368-5.521c.025-.1.042-.2.07-.3a.554.554,0,0,1,.555-.457c.336,0,.674-.009,1.009.019a.372.372,0,0,1,.328.449,5.621,5.621,0,0,1-.156.761q-.928,3.5-1.863,7-.361,1.355-.718,2.711c-.047.176-.094.352-.152.524a.545.545,0,0,1-.508.419c-.492.013-.984.009-1.476-.013a.533.533,0,0,1-.49-.435c-.044-.15-.09-.3-.128-.45q-.8-3.214-1.594-6.428c-.043-.172-.111-.339-.194-.59a1.344,1.344,0,0,0-.271.658q-.718,3.113-1.428,6.227c-.017.076-.03.153-.049.229-.177.713-.286.815-.993.839-.336.011-.675-.012-1.011-.033a.612.612,0,0,1-.6-.514c-.175-.679-.371-1.352-.55-2.03q-1.074-4.068-2.141-8.137a5.59,5.59,0,0,1-.155-.762.391.391,0,0,1,.354-.432,1.812,1.812,0,0,1,.309-.036c1.209-.014,1.186.006,1.44,1.039.6,2.446,1.226,4.887,1.843,7.329.05.2.12.392.181.588Z" transform="translate(-362.567 -1410.822)" fill="#90a4ae"/>
    <path id="Path_226" data-name="Path 226" d="M-739.427,1820c-.218.935-.437,1.868-.652,2.8q-.481,2.089-.958,4.18c-.029.127-.073.25-.1.376a.546.546,0,0,1-.544.468c-.415.019-.831.029-1.245.018a.729.729,0,0,1-.758-.637c-.3-1.236-.65-2.463-.975-3.694q-.847-3.2-1.686-6.409a4.158,4.158,0,0,1-.121-.765.32.32,0,0,1,.312-.378,8.664,8.664,0,0,1,1.24.016c.119.011.258.166.326.289a2.131,2.131,0,0,1,.159.518q.926,3.667,1.851,7.333c.063.25.137.5.24.869a4.264,4.264,0,0,0,.238-.568q.873-3.759,1.734-7.521c.029-.127.051-.255.086-.38.138-.491.237-.586.765-.6,1.176-.031,1.113.056,1.337.964q.913,3.71,1.842,7.415c.049.195.126.383.242.729.118-.389.2-.622.259-.861.624-2.5,1.254-4.991,1.86-7.491.162-.668.272-.744.953-.76a3.987,3.987,0,0,1,.7.046.39.39,0,0,1,.326.456,4.9,4.9,0,0,1-.132.609q-1.33,5.01-2.664,10.02c-.188.707-.295.8-1.018.815-.337.009-.675-.016-1.012-.039a.58.58,0,0,1-.558-.463c-.055-.2-.109-.4-.159-.6q-.781-3.14-1.563-6.28a5.228,5.228,0,0,0-.175-.493Z" transform="translate(-181.551 -1410.836)" fill="#90a4ae"/>
    <path id="Path_227" data-name="Path 227" d="M673.831,1772.435a49.6,49.6,0,0,0-6.005-.012,1.454,1.454,0,0,0-.093.828c-.007,1.82,0,3.639-.005,5.459a2.03,2.03,0,0,1-.088.867,2,2,0,0,1-1.569.088.426.426,0,0,1-.226-.28,2.319,2.319,0,0,1-.029-.543q0-7.175,0-14.35c0-.23.023-.46.036-.7a2.027,2.027,0,0,1,1.605-.11.421.421,0,0,1,.235.276,2.915,2.915,0,0,1,.035.62c0,1.638,0,3.276,0,4.913,0,.254.026.508.042.8a8.085,8.085,0,0,0,1.507.059c.494.009.988,0,1.482,0s.988,0,1.482,0,.978-.012,1.427-.017a.887.887,0,0,0,.158-.718c.007-1.508,0-3.015,0-4.523,0-.182,0-.364,0-.546-.023-.834.032-.9,1-.984a.415.415,0,0,1,.077.01c.79.091.885.14.883.945q-.012,7.175,0,14.35c0,.1,0,.208,0,.312-.026.379-.132.523-.513.552a6.74,6.74,0,0,1-1.083-.031.376.376,0,0,1-.34-.371c-.019-.207-.018-.415-.018-.623q0-2.691,0-5.381Z" transform="translate(-1478.967 -1362.741)" fill="#90a4ae"/>
    <path id="Path_228" data-name="Path 228" d="M378.247,1749.7c.063,2.127,0,4.228.037,6.3.189.128.277.018.372-.065.157-.137.31-.277.468-.413a3.336,3.336,0,0,1,2.6-.814,2.887,2.887,0,0,1,2.2,1.307,4.3,4.3,0,0,1,.686,1.89,12.179,12.179,0,0,1,.118,1.554c.013,2.108.005,4.215.005,6.322,0,.026,0,.052,0,.078.02.769-.055.952-.934.95-.078,0-.156,0-.234,0-.6-.039-.71-.141-.713-.766-.007-1.821,0-3.642-.005-5.464,0-.52-.026-1.04-.046-1.56a3.576,3.576,0,0,0-.357-1.428,1.665,1.665,0,0,0-2.5-.707,5.853,5.853,0,0,0-1.55,1.629,1.11,1.11,0,0,0-.126.678q0,1.561,0,3.122c0,1.223,0,2.446,0,3.668,0,.71-.106.806-.806.83-.961.033-1.076-.074-1.076-1.032q0-7.61,0-15.22c0-.156,0-.312,0-.468.021-.383.134-.517.486-.6A2.176,2.176,0,0,1,378.247,1749.7Z" transform="translate(-1213.081 -1349.782)" fill="#90a4ae"/>
    <path id="Path_229" data-name="Path 229" d="M115.444,1760.4c.148.235.281.454.422.668q1.61,2.44,3.221,4.879a4.317,4.317,0,0,1,.353.6c.143.32.01.615-.32.645a10.728,10.728,0,0,1-1.317,0,.632.632,0,0,1-.485-.354q-.451-.683-.9-1.368-1.26-1.924-2.52-3.848c-.083-.126-.179-.245-.257-.35-.277.067-.192.259-.193.391-.008,1.456,0,2.911-.005,4.367,0,.208.006.416-.008.624-.027.417-.143.53-.576.58-.077.009-.156.008-.234.011-.96.034-1.067-.068-1.067-1.034q0-7.643,0-15.286c0-.156,0-.312,0-.468.018-.313.107-.469.383-.5a5.1,5.1,0,0,1,1.08,0c.276.03.38.19.4.492.018.233.013.468.013.7q0,3.977,0,7.955a2.315,2.315,0,0,0,.078.839c.178-.18.309-.289.412-.421.9-1.144,1.827-2.269,2.677-3.449a1.725,1.725,0,0,1,1.731-.78,4.1,4.1,0,0,1,.463.06.379.379,0,0,1,.29.476,2.072,2.072,0,0,1-.316.614c-.354.448-.736.875-1.108,1.309-.592.69-1.188,1.378-1.778,2.07C115.742,1760.009,115.6,1760.2,115.444,1760.4Z" transform="translate(-969.791 -1350.225)" fill="#90a4ae"/>
    <path id="Path_230" data-name="Path 230" d="M2030.511,1819.9a8.9,8.9,0,0,1-.48,3.187,4.766,4.766,0,0,1-1.628,2.331,3.983,3.983,0,0,1-2.076.818,6.212,6.212,0,0,1-2.242-.14,3.884,3.884,0,0,1-2.335-1.823,5.97,5.97,0,0,1-.771-2.355,10.8,10.8,0,0,1,.22-4.331,5.328,5.328,0,0,1,1.106-2.127,3.976,3.976,0,0,1,2.769-1.422,8.816,8.816,0,0,1,1.478.007,3.842,3.842,0,0,1,3.156,2.126,7.739,7.739,0,0,1,.8,3.306C2030.52,1819.659,2030.511,1819.841,2030.511,1819.9Zm-7.706,0c.04.622.049,1.039.1,1.451a5.244,5.244,0,0,0,.481,1.718,2.58,2.58,0,0,0,4.4.273,4.437,4.437,0,0,0,.581-1.437,8.578,8.578,0,0,0,.134-2.639,5.438,5.438,0,0,0-.577-2.17,2.231,2.231,0,0,0-1.328-1.138,2.542,2.542,0,0,0-3.174,1.273,3.84,3.84,0,0,0-.355.945C2022.937,1818.809,2022.869,1819.456,2022.805,1819.9Z" transform="translate(-2723.801 -1409.087)" fill="#90a4ae"/>
    <path id="Path_231" data-name="Path 231" d="M1122.193,1824.67l-.7.56a3.609,3.609,0,0,1-3.312.648,2.843,2.843,0,0,1-2.142-2.245,4.4,4.4,0,0,1,0-2.086,3.047,3.047,0,0,1,1.428-1.961,4.475,4.475,0,0,1,1.826-.633c.591-.07,1.189-.091,1.784-.128.279-.018.559-.023.881-.036a4.587,4.587,0,0,0-.206-2.25,1.513,1.513,0,0,0-1-.91,3.01,3.01,0,0,0-1.538-.062,5.009,5.009,0,0,0-1.51.608c-.179.106-.35.226-.533.323-.424.226-.686.083-.756-.406a1.4,1.4,0,0,1,.717-1.577,5.922,5.922,0,0,1,4.29-.654,2.812,2.812,0,0,1,2.23,2.153,7.558,7.558,0,0,1,.244,2c.014,2.312,0,4.624.008,6.937,0,.762-.126.9-.908.89a2.16,2.16,0,0,1-.31-.023c-.291-.046-.4-.153-.436-.456C1122.222,1825.185,1122.217,1825,1122.193,1824.67Zm-.186-4.2a10.505,10.505,0,0,0-2.416.057,3.02,3.02,0,0,0-.868.323,2.008,2.008,0,0,0-.426,2.926,1.488,1.488,0,0,0,.874.469,2.053,2.053,0,0,0,1.686-.408,8.21,8.21,0,0,0,.939-.924.833.833,0,0,0,.2-.485C1122.021,1821.813,1122.007,1821.192,1122.007,1820.474Z" transform="translate(-1892.459 -1408.817)" fill="#90a4ae"/>
    <path id="Path_232" data-name="Path 232" d="M517.489,1820.559a6.7,6.7,0,0,0,.221,1.866,2.629,2.629,0,0,0,2.575,2,5.679,5.679,0,0,0,2.57-.533,4.652,4.652,0,0,1,.65-.252.335.335,0,0,1,.439.319c.077,1.234.054,1.372-1.016,1.781a7.243,7.243,0,0,1-3.527.405,3.838,3.838,0,0,1-3.055-2.032,6.052,6.052,0,0,1-.59-1.517,10.678,10.678,0,0,1,0-4.866,5.236,5.236,0,0,1,1.521-2.757,3.793,3.793,0,0,1,2.382-1.033c.259-.017.52-.015.779-.009a3.639,3.639,0,0,1,3.228,1.975,5.1,5.1,0,0,1,.59,1.765c.078.486.113.98.15,1.472a2.883,2.883,0,0,1-.026.621.8.8,0,0,1-.9.772c-1.69-.013-3.379-.005-5.069,0C518.129,1820.53,517.847,1820.547,517.489,1820.559Zm4.951-1.74a3.5,3.5,0,0,0-.411-2.067,2.255,2.255,0,0,0-3.043-.856,3.075,3.075,0,0,0-1.391,2.948,3.368,3.368,0,0,0,.433.072A29.393,29.393,0,0,0,522.439,1818.819Z" transform="translate(-1340.853 -1409.005)" fill="#90a4ae"/>
    <path id="Path_233" data-name="Path 233" d="M-34.012,1820.557a4.934,4.934,0,0,0,.492,2.507,2.53,2.53,0,0,0,2.225,1.349,5.465,5.465,0,0,0,2.577-.492c.238-.1.475-.209.722-.286a.314.314,0,0,1,.415.248,4.414,4.414,0,0,1,.059.848.879.879,0,0,1-.547.787,5.8,5.8,0,0,1-2.006.6,10.18,10.18,0,0,1-1.942.023,3.922,3.922,0,0,1-3.358-2.436,7.541,7.541,0,0,1-.6-2.489,10.346,10.346,0,0,1,.261-3.635A5.058,5.058,0,0,1-34,1814.767a3.776,3.776,0,0,1,2.3-.843c.234-.005.468-.009.7,0a3.6,3.6,0,0,1,3.074,1.829,5.345,5.345,0,0,1,.72,2.206,16.714,16.714,0,0,1,.064,1.712c.009.6-.357.869-.947.862-1.663-.022-3.326-.009-4.989-.006C-33.355,1820.527-33.636,1820.544-34.012,1820.557Zm4.988-1.672a3.818,3.818,0,0,0-.608-2.388,1.952,1.952,0,0,0-1.428-.841,2.291,2.291,0,0,0-2.372,1.141,4.239,4.239,0,0,0-.551,1.606,2.377,2.377,0,0,0,.024.486C-32.319,1818.931-30.722,1818.935-29.024,1818.885Z" transform="translate(-834.212 -1409.002)" fill="#90a4ae"/>
    <path id="Path_234" data-name="Path 234" d="M1325.212,1825.7c-.041-.181-.079-.33-.109-.48s-.049-.287-.083-.5c-.32.245-.578.453-.848.646a3.562,3.562,0,0,1-3.2.465,2.821,2.821,0,0,1-2.015-2.086,4.364,4.364,0,0,1-.1-1.855,3.2,3.2,0,0,1,2.15-2.643,7.227,7.227,0,0,1,2.519-.437c.413-.008.825-.007,1.272-.01a3.875,3.875,0,0,0-.182-2.321,1.541,1.541,0,0,0-1.034-.878,3,3,0,0,0-2.058.125,8.311,8.311,0,0,0-1.311.676c-.56.361-.9.177-.94-.533a1.349,1.349,0,0,1,.723-1.35,5.845,5.845,0,0,1,4.361-.658,2.823,2.823,0,0,1,2.2,2.192,7.045,7.045,0,0,1,.212,1.854c0,2.365,0,4.73,0,7.1,0,.659-.061.84-.88.829a2.714,2.714,0,0,1-.387-.035A2.128,2.128,0,0,1,1325.212,1825.7Zm-.363-5.155a6.247,6.247,0,0,0-2.8.089,1.958,1.958,0,0,0-1.051,2.863,1.477,1.477,0,0,0,1.117.752,1.955,1.955,0,0,0,1.545-.359,10.548,10.548,0,0,0,1.012-.956.685.685,0,0,0,.195-.407A15.1,15.1,0,0,0,1324.849,1820.548Z" transform="translate(-2078.845 -1408.81)" fill="#90a4ae"/>
    <path id="Path_235" data-name="Path 235" d="M1587.3,1824.658c-.276.222-.491.4-.713.572a3.651,3.651,0,0,1-3.328.57,2.762,2.762,0,0,1-1.95-1.859,4.318,4.318,0,0,1-.085-2.533,3.076,3.076,0,0,1,1.747-2.073,6.81,6.81,0,0,1,2.647-.565c.337-.018.675,0,1.013-.007.15,0,.3-.035.478-.057a4.1,4.1,0,0,0-.208-2.231,1.477,1.477,0,0,0-1-.908,3.027,3.027,0,0,0-2.061.1c-.456.179-.88.438-1.321.658a2.853,2.853,0,0,1-.491.219.3.3,0,0,1-.375-.2,1.46,1.46,0,0,1,.5-1.793,6.572,6.572,0,0,1,1.717-.717,5.851,5.851,0,0,1,2.628-.044,2.893,2.893,0,0,1,2.368,2.4,7.586,7.586,0,0,1,.166,1.544c.017,2.364.008,4.729.007,7.093,0,.13,0,.26,0,.39-.022.4-.13.517-.5.566a1.929,1.929,0,0,1-.233.014c-.836.009-.966-.132-.926-.863A1.3,1.3,0,0,0,1587.3,1824.658Zm-.162-4.247a12.392,12.392,0,0,0-2.251.039,3.04,3.04,0,0,0-.884.28,1.983,1.983,0,0,0-.534,3.006,1.477,1.477,0,0,0,.876.463,2.016,2.016,0,0,0,1.62-.378,9.47,9.47,0,0,0,1-.971.705.705,0,0,0,.194-.409A14.84,14.84,0,0,0,1587.135,1820.411Z" transform="translate(-2319.784 -1408.762)" fill="#90a4ae"/>
    <path id="Path_236" data-name="Path 236" d="M1450.836,1824.806c.08-.243.167-.483.239-.728q1.058-3.59,2.112-7.181c.262-.891.157-1.005,1.354-.974.684.017.839.226.648.886-.289,1-.611,1.987-.92,2.98l-3.586,11.542c-.008.025-.011.051-.019.076-.231.726-.413.867-1.162.894a2.886,2.886,0,0,1-.39,0c-.566-.056-.728-.285-.548-.844.254-.792.537-1.574.806-2.361.134-.393.265-.788.375-1.116-.545-1.692-1.073-3.321-1.6-4.952q-.942-2.932-1.88-5.866a5.955,5.955,0,0,1-.191-.675.4.4,0,0,1,.35-.511,11.3,11.3,0,0,1,1.165-.017.489.489,0,0,1,.461.361c.088.245.172.49.248.739q1.1,3.579,2.192,7.158c.06.2.134.387.2.58Z" transform="translate(-2195.759 -1410.839)" fill="#90a4ae"/>
    <path id="Path_237" data-name="Path 237" d="M227.843,1766.575v.853q0,6.01,0,12.019c0,.234,0,.469-.014.7-.02.255-.125.393-.385.412a8.558,8.558,0,0,1-1.162,0,.418.418,0,0,1-.4-.413c-.024-.258-.026-.519-.027-.779q0-6.01,0-12.02a1.609,1.609,0,0,0-.115-.894c-.229-.012-.483-.035-.738-.036-.78-.005-1.561,0-2.341,0-.255,0-.51-.028-.782-.044a2.15,2.15,0,0,1-.11-1.55.4.4,0,0,1,.393-.317c.156-.009.312-.012.468-.012h8.428c.078,0,.156,0,.234,0,.457-.017.712.042.759.744a3.48,3.48,0,0,1,0,.468c-.042.6-.143.7-.775.711-.858.01-1.717,0-2.575.006A1.358,1.358,0,0,0,227.843,1766.575Z" transform="translate(-1070.953 -1363.591)" fill="#90a4ae"/>
    <path id="Path_238" data-name="Path 238" d="M-278.721,1766.469c-.365-.016-.621-.036-.876-.037-.78,0-1.559,0-2.338,0a5.434,5.434,0,0,1-.544-.023.366.366,0,0,1-.333-.282,2.235,2.235,0,0,1-.016-1.231.443.443,0,0,1,.432-.377c.182-.008.363-.011.545-.011h8.263c.13,0,.26,0,.39,0,.474.023.622.144.65.591a5.642,5.642,0,0,1-.026.932.423.423,0,0,1-.422.385c-.18.018-.363.014-.545.015-.779,0-1.559,0-2.338,0-.255,0-.51.025-.768.038a1.8,1.8,0,0,0-.1.878q-.006,6.081-.005,12.162a2.184,2.184,0,0,1-.071.91,1.243,1.243,0,0,1-.9.213c-.873,0-.973-.1-.974-.99q0-6.081,0-12.162C-278.7,1767.174-278.713,1766.866-278.721,1766.469Z" transform="translate(-607.409 -1363.606)" fill="#90a4ae"/>
    <path id="Path_239" data-name="Path 239" d="M1714.133,1823.118c.294,0,.472.219.7.333a11,11,0,0,0,1.266.588,2.636,2.636,0,0,0,1.682-.03,1.593,1.593,0,0,0,.516-2.666,5.318,5.318,0,0,0-.707-.479c-.342-.185-.71-.322-1.055-.5a9.866,9.866,0,0,1-1.15-.653,2.917,2.917,0,0,1-1.312-2.442,4.994,4.994,0,0,1,.092-1.238,2.96,2.96,0,0,1,2.31-2.287,4.315,4.315,0,0,1,2.754.2,2.529,2.529,0,0,1,.606.344.763.763,0,0,1,.293.433,6.328,6.328,0,0,1,0,1.16.3.3,0,0,1-.477.214c-.184-.1-.355-.216-.535-.32a3.051,3.051,0,0,0-1.947-.408,1.332,1.332,0,0,0-1.192.87,1.438,1.438,0,0,0,.263,1.6,4.19,4.19,0,0,0,.87.645c.335.2.706.328,1.053.505a10.621,10.621,0,0,1,1.159.637,2.841,2.841,0,0,1,1.335,2.421,6.723,6.723,0,0,1-.022.857,3.069,3.069,0,0,1-2.181,2.766,4.949,4.949,0,0,1-3.792-.246,1.536,1.536,0,0,1-.706-2.166C1713.99,1823.192,1714.077,1823.159,1714.133,1823.118Z" transform="translate(-2441.68 -1408.716)" fill="#90a4ae"/>
    <path id="Path_240" data-name="Path 240" d="M1902.953,1819.788a7.056,7.056,0,0,0,.283,2.231,4.258,4.258,0,0,0,.361.858,2.17,2.17,0,0,0,2.688.972,4.268,4.268,0,0,0,.953-.513,7.672,7.672,0,0,0,.607-.487c.157-.124.3-.323.539-.2.215.111.228.346.236.546.045,1.105.063,1.424-1.083,2.1a4.522,4.522,0,0,1-3.317.474,3.481,3.481,0,0,1-2.308-1.717,6.18,6.18,0,0,1-.781-2.27,11.776,11.776,0,0,1,.1-4.335,6.414,6.414,0,0,1,.647-1.747,4.128,4.128,0,0,1,5.73-1.542,4.239,4.239,0,0,1,.383.268,1.285,1.285,0,0,1,.583,1.2,8.474,8.474,0,0,1-.079.847.323.323,0,0,1-.5.2c-.153-.1-.285-.223-.431-.329a6.96,6.96,0,0,0-.828-.577,2.272,2.272,0,0,0-3.3,1.128,7,7,0,0,0-.477,2.353C1902.943,1819.424,1902.953,1819.606,1902.953,1819.788Z" transform="translate(-2613.668 -1408.682)" fill="#90a4ae"/>
    <path id="Path_241" data-name="Path 241" d="M1258.852,1749.661a1.831,1.831,0,0,1,1.494-.164.406.406,0,0,1,.328.389c.012.181.011.363.011.545q0,7.674,0,15.348c0,.13,0,.26,0,.389-.021.416-.137.538-.561.59-.077.01-.155.01-.233.013-.96.038-1.061-.057-1.061-1.031q0-7.635,0-15.27C1258.829,1750.211,1258.843,1749.954,1258.852,1749.661Z" transform="translate(-2023.748 -1349.742)" fill="#90a4ae"/>
    <path id="Path_242" data-name="Path 242" d="M-126.281,1815.589c.205-.221.291-.308.371-.4.186-.217.363-.441.553-.653a2.256,2.256,0,0,1,2.429-.6.675.675,0,0,1,.612.774,7.8,7.8,0,0,1-.032,1.088c-.036.318-.24.415-.561.315-.1-.031-.2-.064-.294-.1a1.415,1.415,0,0,0-1.793.511c-.374.5-.693,1.032-1.03,1.555a1.448,1.448,0,0,0-.129.834q0,2.961,0,5.922c0,.208.005.416-.009.623-.019.274-.109.413-.357.43a7.939,7.939,0,0,1-1.158-.012.362.362,0,0,1-.322-.382c-.009-.181-.011-.363-.011-.545q0-4.987,0-9.975c0-.156-.006-.312.005-.467.024-.334.134-.445.482-.493a2.4,2.4,0,0,1,.31-.021c.87-.008.924.153.906.876C-126.315,1815.044-126.3,1815.223-126.281,1815.589Z" transform="translate(-749.703 -1408.912)" fill="#90a4ae"/>
    <path id="Path_243" data-name="Path 243" d="M835.827,1821.842c0-1.663,0-3.326,0-4.989,0-.763.027-.949.93-.956s1,.2,1,.986q-.016,4.989,0,9.977c0,.835-.105.991-.984.988a3.3,3.3,0,0,1-.389-.018c-.407-.05-.521-.177-.548-.61-.011-.181-.005-.364-.005-.546Q835.827,1824.259,835.827,1821.842Z" transform="translate(-1635.15 -1410.82)" fill="#90a4ae"/>
    <path id="Path_244" data-name="Path 244" d="M1835.921,1926.407c.064.013.24.045.415.083a.727.727,0,0,1,.577.562,3.521,3.521,0,0,1-.007,1.76.515.515,0,0,1-.062.141,1.132,1.132,0,0,1-1.148.474c-.433-.02-.844-.13-.981-.6a3.335,3.335,0,0,1-.012-1.758C1834.819,1926.611,1835.2,1926.413,1835.921,1926.407Z" transform="translate(-2552.682 -1512.341)" fill="#90a4ae"/>
    <path id="Path_245" data-name="Path 245" d="M-339.575,1927.912c.017-.29.014-.446.038-.6.058-.362.131-.727.533-.875a1.536,1.536,0,0,1,1.48.107.836.836,0,0,1,.274.448,3.258,3.258,0,0,1,0,1.684.693.693,0,0,1-.086.214,1.215,1.215,0,0,1-1.246.432.851.851,0,0,1-.875-.629A7.148,7.148,0,0,1-339.575,1927.912Z" transform="translate(-555.351 -1512.244)" fill="#90a4ae"/>
    <path id="Path_246" data-name="Path 246" d="M833.126,1760.518c0-.026,0-.052,0-.078.006-.4.041-.81.445-1.012a1.514,1.514,0,0,1,1.426.012.7.7,0,0,1,.29.346,2.18,2.18,0,0,1,.015,1.525c-.18.526-.636.547-1.093.54-.59-.008-.868-.152-.993-.567a5.508,5.508,0,0,1-.122-.762Z" transform="translate(-1632.642 -1358.785)" fill="#90a4ae"/>
  </g>
</svg>
