<svg xmlns="http://www.w3.org/2000/svg" width="409.178" height="49.686" viewBox="0 0 409.178 49.686">
  <g id="TQ17zC.tif" transform="translate(0 0)">
    <g id="Group_276" data-name="Group 276">
      <path id="Path_285" data-name="Path 285" d="M31.572,862.883c.019-.326-.263-.449-.445-.63Q18.1,849.328,5.079,836.393c-.623-.621-.944-.532-1.491.031-1.654,1.7-3.372,3.338-5.033,5.032-.4.413-.647.434-1.061.018q-3.477-3.5-7.006-6.942c-.465-.452-.4-.7.03-1.126q9.952-9.819,19.864-19.677c.533-.529.858-.641,1.452-.031,2.223,2.282,4.494,4.517,6.784,6.733.484.468.491.7,0,1.175-1.91,1.828-3.753,3.724-5.659,5.556-.465.447-.43.684.009,1.117Q26.905,842.024,40.813,855.8c2.238,2.216,4.448,4.46,6.671,6.691-.164.544-.618.272-.919.273-4.5.021-8.994.012-13.492.02a2.067,2.067,0,0,0-1.093.1Z" transform="translate(57.42 -813.283)" fill="#fff"/>
      <path id="Path_286" data-name="Path 286" d="M-242.84,1053.659l.219.031a4.045,4.045,0,0,1,1.408-.158q20.778,0,41.557,0a5.912,5.912,0,0,1,1.313.124c.213.061.306.24.4.412q-22.044,0-44.088-.02C-242.283,1054.045-242.9,1054.458-242.84,1053.659Z" transform="translate(242.844 -1004.466)" fill="#fff"/>
      <path id="Path_287" data-name="Path 287" d="M42.8,1054.073a.265.265,0,0,1-.051-.18,1.356,1.356,0,0,1,1.129-.341c4.579-.02,9.159,0,13.738-.012a7.3,7.3,0,0,1,.906.119.653.653,0,0,1,.4.415Z" transform="translate(15.575 -1004.474)" fill="#fff"/>
      <path id="Path_288" data-name="Path 288" d="M194.914,1054.624c.334-.352.766-.195,1.153-.2,4.431-.012,8.862,0,13.293-.013.356,0,.751.135,1.058-.184.2.064.2.229.212.393Z" transform="translate(-105.514 -1005.024)" fill="#fff"/>
      <path id="Path_289" data-name="Path 289" d="M-105.379,845.867c-.162.173-.34.373-.529.561-2.167,2.149-4.311,4.321-6.52,6.427-.644.615-.721.938-.031,1.607,3.774,3.658,7.481,7.384,11.236,11.061.542.53.638.819.021,1.407-2.283,2.174-4.515,4.4-6.721,6.656-.534.545-.828.546-1.362.011-3.76-3.767-7.566-7.488-11.316-11.264-.586-.591-.871-.527-1.411.021-2.188,2.222-4.445,4.379-6.633,6.6-.512.52-.783.49-1.277-.011q-3.321-3.367-6.723-6.654c-.541-.523-.642-.822-.041-1.414q11.2-11.022,22.35-22.1c1.006-1,1.007-1,1.984-.03q3.254,3.217,6.505,6.437C-105.662,845.371-105.4,845.508-105.379,845.867Z" transform="translate(158.692 -832.976)" fill="#fff"/>
      <path id="Path_290" data-name="Path 290" d="M-197.471,987.132c-.3.34-.7.2-1.053.2q-21.128.011-42.256,0c-.327,0-.685.11-.968-.168q5.366-5.347,10.728-10.7c.27-.27.475-.349.729-.014a1.436,1.436,0,0,0,.217.214c.66.566,1.167,1.693,1.923,1.642.65-.044,1.241-1.043,1.845-1.634,2.157-2.11,4.325-4.21,6.45-6.352.5-.5.766-.534,1.279,0,1.818,1.874,3.714,3.673,5.538,5.541.478.49.741.46,1.2-.009,1.5-1.535,1.512-1.515,3.053.019Q-203.133,981.5-197.471,987.132Z" transform="translate(241.973 -937.945)" fill="#fff"/>
      <path id="Path_291" data-name="Path 291" d="M1150.384,872.11a6.746,6.746,0,0,1,6.056-1.694,4.619,4.619,0,0,1,2.687,1.532c.4.477.6.5,1.063.051a6.212,6.212,0,0,1,4.732-1.737c2.986.119,5.082,1.92,5.2,4.893.156,3.848.063,7.706.084,11.559,0,.618-.322.824-.9.816-1.054-.015-2.109-.036-3.161.006-.8.032-1.078-.289-1.07-1.074.028-2.873.013-5.747.01-8.62a9.632,9.632,0,0,0-.148-2.018,1.684,1.684,0,0,0-2.33-1.388,2.885,2.885,0,0,0-2.011,2.871c-.246,2.9-.09,5.811-.125,8.717-.018,1.5,0,1.5-1.536,1.5-.816,0-1.635-.043-2.447.011-.916.061-1.172-.349-1.166-1.2q.032-4.766-.027-9.533c-.019-1.727-.434-2.344-1.511-2.459a2.6,2.6,0,0,0-2.839,2.073,14.907,14.907,0,0,0-.267,3.529c-.025,2.129-.046,4.261.011,6.389.025.956-.335,1.262-1.255,1.2-.947-.061-1.9-.039-2.854-.005-.734.026-1.051-.261-1.049-1q.019-7.454,0-14.908c0-.682.289-.986.983-.962a20.467,20.467,0,0,0,2.345-.006C1149.865,870.574,1150.55,870.779,1150.384,872.11Z" transform="translate(-861.997 -858.621)" fill="#fff"/>
      <path id="Path_292" data-name="Path 292" d="M1005.226,853.935c0,3.381-.027,6.763.017,10.144.013.971-.3,1.351-1.292,1.284a24.561,24.561,0,0,0-2.957,0c-.838.044-1.153-.261-1.141-1.106.036-2.569-.016-5.14.031-7.709.014-.752-.175-.981-.955-.958-2.039.059-4.082.067-6.12,0-.851-.029-1,.268-.987,1.029.043,2.536,0,5.072.029,7.608.011.81-.227,1.186-1.1,1.141-1.085-.056-2.176-.031-3.264-.007-.675.015-1-.234-1-.939q.013-10.551,0-21.1c0-.633.27-.927.918-.918,1.122.017,2.246.039,3.366-.007.8-.033,1.095.262,1.083,1.056-.032,2.265.017,4.531-.027,6.8-.014.708.184.919.9.9,2.073-.048,4.149-.059,6.222,0,.81.025.948-.258.934-.979-.044-2.231,0-4.463-.026-6.695-.01-.764.232-1.123,1.055-1.087,1.086.048,2.177.042,3.264,0,.813-.03,1.065.332,1.061,1.095C1005.214,846.969,1005.226,850.452,1005.226,853.935Z" transform="translate(-735.425 -836.443)" fill="#fff"/>
      <path id="Path_293" data-name="Path 293" d="M758.527,849.8a7.1,7.1,0,0,1,4.773-1.725c3.309.086,5.485,2.041,5.594,5.335.122,3.681.046,7.369.07,11.053,0,.661-.3.9-.937.883-1.053-.024-2.109-.039-3.161,0-.826.034-1.051-.341-1.044-1.1.028-2.67.013-5.341.009-8.012,0-.574,0-1.151-.037-1.723-.107-1.506-.615-2.166-1.765-2.343a2.834,2.834,0,0,0-3.076,1.65,6.722,6.722,0,0,0-.42,2.584c-.005,2.6-.028,5.207.006,7.809.011.822-.254,1.181-1.113,1.136a25.4,25.4,0,0,0-2.854,0c-.884.053-1.194-.263-1.187-1.158.033-4.868.016-9.736.016-14.6,0-2.029.028-4.057-.014-6.085-.017-.831.261-1.17,1.117-1.125.983.053,1.972.044,2.957,0,.793-.033,1.091.274,1.078,1.067C758.5,845.5,758.527,847.555,758.527,849.8Z" transform="translate(-549.934 -836.435)" fill="#fff"/>
      <path id="Path_294" data-name="Path 294" d="M524.892,853.45c1.406-1.583,2.653-2.945,3.845-4.354a1.571,1.571,0,0,1,1.388-.621c1.359.042,2.72.015,4.081.012.306,0,.573-.019.742.354.181.4-.077.559-.277.771-1.415,1.509-2.81,3.037-4.262,4.509a1.043,1.043,0,0,0-.193,1.526c1.676,2.779,3.291,5.594,4.923,8.4.582,1,.4,1.313-.781,1.295-1.356-.022-2.96.482-4-.182-.987-.632-1.389-2.169-2.043-3.311-.637-1.111-1.267-2.226-1.894-3.329a3.039,3.039,0,0,0-1.555,3.17c.119.863,0,1.757.03,2.635.028.722-.222,1.064-1,1.034-1.053-.041-2.109-.028-3.163,0-.684.016-.99-.256-.989-.953q.014-10.5,0-21c0-.745.306-1.03,1.041-1.007,1.019.033,2.042.045,3.06,0,.824-.04,1.059.318,1.051,1.085-.027,2.908-.011,5.817-.011,8.725Z" transform="translate(-364.012 -836.443)" fill="#fff"/>
      <path id="Path_295" data-name="Path 295" d="M1297.37,886.369a10.211,10.211,0,0,1-.748-4.356c-.01-2.332.051-4.666-.027-7a4.341,4.341,0,0,0-3.653-4.489,13.441,13.441,0,0,0-6.458-.055,5.778,5.778,0,0,0-4.283,4.074c-.224.639-.11,1.045.637,1.156,1.074.159,2.144.345,3.216.521a.6.6,0,0,0,.729-.353,2.873,2.873,0,0,1,3.882-1.477,1.323,1.323,0,0,1,.944,1.4c.018.635-.588.539-.968.649-1.95.574-4.011.723-5.912,1.491a4.865,4.865,0,0,0-3.163,4.944,5.041,5.041,0,0,0,3.929,4.72,7.166,7.166,0,0,0,6.637-1.648c.537,1.458.537,1.458,2,1.458h2.551C1297.435,887.407,1297.678,887.033,1297.37,886.369Zm-8.641-2.63a2.123,2.123,0,0,1-1.424-.449,1.267,1.267,0,0,1,.28-2.269,25.817,25.817,0,0,1,3.641-.894c.408-.108.4.178.421.476A2.824,2.824,0,0,1,1288.729,883.739Z" transform="translate(-970.238 -858.502)" fill="#fff"/>
      <path id="Path_296" data-name="Path 296" d="M1432.306,886.478a11.179,11.179,0,0,1-.768-4.86c0-2.2.051-4.4-.027-6.59a4.373,4.373,0,0,0-3.6-4.434,14.018,14.018,0,0,0-5.159-.314,6.041,6.041,0,0,0-5.616,4.278c-.239.7-.125,1.1.667,1.217,1.041.151,2.079.331,3.116.5a.641.641,0,0,0,.8-.4,2.942,2.942,0,0,1,4.009-1.385,1.348,1.348,0,0,1,.8,1.4c0,.568-.568.488-.919.59-1.952.57-4.011.727-5.914,1.481a4.875,4.875,0,0,0-3.208,5.014,5.038,5.038,0,0,0,3.974,4.681,7.181,7.181,0,0,0,6.557-1.618c.457.517.1,1.425,1.058,1.42,1.19-.008,2.379,0,3.57,0C1432.343,887.46,1432.6,887.1,1432.306,886.478Zm-5.749-5.634a2.831,2.831,0,0,1-3.168,2.947,1.723,1.723,0,0,1-1.721-1.426c-.08-.97.6-1.274,1.364-1.464.919-.229,1.863-.365,2.767-.639C1426.516,880.043,1426.657,880.294,1426.557,880.843Z" transform="translate(-1077.602 -858.561)" fill="#fff"/>
      <path id="Path_297" data-name="Path 297" d="M1611.3,886.448a11.071,11.071,0,0,1-.768-4.76c-.01-2.23.139-4.462-.008-6.692a4.434,4.434,0,0,0-3.623-4.423,13.9,13.9,0,0,0-5.965-.186,5.854,5.854,0,0,0-4.806,4.156c-.247.7-.108,1.1.679,1.211,1.041.149,2.078.329,3.116.5a.639.639,0,0,0,.8-.4,2.941,2.941,0,0,1,4.013-1.376,1.369,1.369,0,0,1,.8,1.307c.057.682-.564.574-.931.684-1.883.562-3.868.727-5.723,1.413a4.7,4.7,0,0,0-3.275,3.68,5.17,5.17,0,0,0,5.071,6.282,7.4,7.4,0,0,0,5.348-1.816c.449.527.1,1.428,1.062,1.417,1.191-.012,2.381.006,3.57,0C1611.355,887.433,1611.594,887.065,1611.3,886.448Zm-5.749-5.545a2.85,2.85,0,0,1-3.294,2.847c-.825-.127-1.5-.506-1.591-1.438-.086-.907.562-1.229,1.293-1.413,1.017-.255,2.038-.488,3.063-.713C1605.962,879.981,1605.329,880.771,1605.556,880.9Z" transform="translate(-1220.07 -858.538)" fill="#fff"/>
      <path id="Path_298" data-name="Path 298" d="M1511.413,882.554c1.1-3.287,2.159-6.415,3.17-9.561.2-.616.457-.856,1.123-.818,1.084.061,2.175.008,3.262.019.925.01,1.146.272.844,1.092q-3.335,9.07-6.7,18.128c-1.585,4.249-5.126,4.488-8.73,3.9-.172-.028-.349-.081-.375-.28-.139-1.037-.319-2.073-.377-3.115-.025-.453.368-.677.863-.6a8.458,8.458,0,0,0,1.211.142,2.7,2.7,0,0,0,2.613-3.733q-2.712-7.089-5.424-14.177c-.446-1.166-.313-1.359.932-1.363,1.088,0,2.178.042,3.262-.017.6-.032.813.2.988.727.993,2.975,2.019,5.939,3.036,8.905C1511.175,881.994,1511.259,882.176,1511.413,882.554Z" transform="translate(-1146.189 -860.145)" fill="#fff"/>
      <path id="Path_299" data-name="Path 299" d="M850.411,880.471c1.527.057,3.059.017,4.589.017s3.059-.035,4.587.016c.655.022.8-.192.782-.8a19.742,19.742,0,0,0-.233-2.826c-.533-3.047-2.012-5.4-5.122-6.337-3.07-.925-5.937-.531-8.277,1.854-1.912,1.948-2.373,4.4-2.328,7.013.1,5.561,3.484,8.72,9.063,8.354a7.04,7.04,0,0,0,6.384-4.462c.355-.8.145-1.192-.727-1.3-1.111-.139-2.218-.308-3.325-.486-.466-.076-.747.012-.888.529a2.129,2.129,0,0,1-1.65,1.619,3.024,3.024,0,0,1-3.5-2.363C849.633,880.737,849.684,880.445,850.411,880.471Zm-.527-4.372a2.7,2.7,0,0,1,5.226.231c.145.527.09.739-.515.7-.71-.041-1.425-.01-2.138-.01-.647,0-1.3-.047-1.936.012C849.663,877.116,849.653,876.747,849.884,876.1Z" transform="translate(-622.366 -858.483)" fill="#fff"/>
      <path id="Path_300" data-name="Path 300" d="M431.709,880.46c1.493.065,2.992.018,4.487.018,1.564,0,3.129-.025,4.691.014.584.014.75-.172.737-.737a18.932,18.932,0,0,0-.237-2.926c-.537-3.006-2.005-5.34-5.061-6.28s-5.933-.57-8.293,1.8c-1.955,1.965-2.418,4.448-2.367,7.1.106,5.569,3.635,8.782,9.206,8.306a7.057,7.057,0,0,0,6.257-4.495c.321-.739.153-1.142-.686-1.25q-1.718-.22-3.425-.509c-.513-.088-.723.119-.86.576a2.132,2.132,0,0,1-1.581,1.566,3.006,3.006,0,0,1-3.541-2.291C430.882,880.754,430.914,880.426,431.709,880.46Zm-.678-4.044a2.731,2.731,0,0,1,5.379.061c.078.4.012.553-.417.543-.78-.021-1.562-.006-2.345-.006-.713,0-1.428-.025-2.138.01C431.006,877.048,430.953,876.829,431.031,876.417Z" transform="translate(-289.138 -858.474)" fill="#fff"/>
      <path id="Path_301" data-name="Path 301" d="M1691.11,887.621a9.56,9.56,0,0,1-5.88-1.607,6.454,6.454,0,0,1-2.243-3.068c-.209-.579-.079-.985.626-1.08,1.212-.164,2.421-.347,3.627-.54.452-.072.633.081.8.523a3.572,3.572,0,0,0,5.145,1.4.993.993,0,0,0,.44-.962c-.057-.46-.439-.584-.8-.679-1.442-.383-2.9-.724-4.333-1.119a16.454,16.454,0,0,1-2.013-.706,4.549,4.549,0,0,1-3.05-4.383,4.635,4.635,0,0,1,2.816-4.57,10.937,10.937,0,0,1,9,0,5.326,5.326,0,0,1,2.831,3.426c.2.585.053.919-.553,1.02-1.173.195-2.349.366-3.521.56-.418.069-.557-.109-.718-.489-.633-1.5-3.529-2.149-4.75-1.081-.629.55-.187.932.344,1.1,1.3.4,2.609.738,3.923,1.075a22.609,22.609,0,0,1,3.085,1.019c3.607,1.5,3.482,5.611,1.665,7.711C1695.816,887.164,1693.489,887.574,1691.11,887.621Z" transform="translate(-1289.619 -858.302)" fill="#fff"/>
      <path id="Path_302" data-name="Path 302" d="M277.658,856.007c0-2.773-.02-5.548.015-8.321.008-.634-.18-.807-.8-.791-1.6.041-3.2-.011-4.8.024-.785.017-1.126-.275-1.093-1.065.034-.811.022-1.624,0-2.435-.015-.664.239-1,.951-.995q8.368.016,16.735,0c.65,0,.937.252.923.9-.019.879-.023,1.759,0,2.638.02.691-.267.971-.971.957-1.564-.03-3.131.035-4.693-.029-.763-.031-.957.176-.952.94.037,5.411.02,10.823.019,16.235,0,1.3-.017,1.31-1.319,1.312-.986,0-1.975-.035-2.959.011-.8.038-1.083-.27-1.074-1.062C277.677,861.554,277.658,858.78,277.658,856.007Z" transform="translate(-166.045 -836.473)" fill="#fff"/>
      <path id="Path_303" data-name="Path 303" d="M659.783,855.99c0,2.74-.026,5.48.015,8.219.013.874-.269,1.235-1.172,1.183a24.223,24.223,0,0,0-2.958,0c-.93.06-1.25-.262-1.243-1.208.037-5.378,0-10.756.039-16.134.008-.915-.208-1.218-1.159-1.164-1.491.086-2.992,0-4.488.031-.731.014-1.072-.258-1.049-1,.025-.844.015-1.691,0-2.536-.009-.612.224-.951.889-.951q8.418.009,16.837,0c.682,0,.894.325.881.94-.018.845-.03,1.692,0,2.536.029.735-.256,1.036-1.015,1.019-1.564-.036-3.13.026-4.693-.027-.7-.024-.922.145-.91.878C659.811,850.51,659.783,853.25,659.783,855.99Z" transform="translate(-465.884 -836.474)" fill="#fff"/>
      <path id="Path_304" data-name="Path 304" d="M1376.11,853.882c0-3.444.022-6.888-.015-10.332-.009-.875.271-1.23,1.171-1.177.981.057,1.97.039,2.953,0,.754-.026,1.011.3,1.009,1.026q-.023,10.433,0,20.867c0,.783-.269,1.107-1.068,1.073-.983-.042-1.971-.049-2.953,0-.857.044-1.12-.308-1.112-1.132C1376.129,860.77,1376.11,857.326,1376.11,853.882Z" transform="translate(-1045.472 -836.428)" fill="#fff"/>
      <path id="Path_305" data-name="Path 305" d="M371.631,871.849c1.958-1.775,3.777-2.021,5.895-.946.5.254.71.491.469,1.072-.388.933-.7,1.9-1.033,2.853-.216.612-.524.857-1.222.547-2-.89-3.091-.348-3.509,1.821a22.284,22.284,0,0,0-.3,3.627c-.049,1.891-.039,3.784-.013,5.676.01.717-.213,1.069-.989,1.04-1.052-.039-2.107-.028-3.16,0-.675.016-1-.225-.994-.938q.021-7.5,0-15c0-.716.327-.952,1-.932.883.026,1.768.038,2.65,0C371.19,870.626,371.7,870.822,371.631,871.849Z" transform="translate(-242.277 -858.624)" fill="#fff"/>
      <path id="Path_306" data-name="Path 306" d="M52.733,1017.8c-.329.363-.763.2-1.15.206q-7.311.028-14.622.03c-1.948-1.659-1.949-1.66-.192-3.4,1.953-1.929,3.912-3.853,5.856-5.79.344-.343.577-.58,1.051-.1C46.678,1011.779,49.711,1014.782,52.733,1017.8Z" transform="translate(21.364 -968.612)" fill="#fff"/>
      <path id="Path_307" data-name="Path 307" d="M1100.27,880.608c0-2.4.031-4.793-.016-7.188-.018-.9.236-1.31,1.2-1.247,1.014.066,2.035.023,3.054.012.59-.006.87.25.869.848q-.008,7.593,0,15.186c0,.608-.309.836-.888.83-1.052-.012-2.105-.035-3.156.007-.788.031-1.09-.263-1.079-1.059C1100.291,885.535,1100.27,883.071,1100.27,880.608Z" transform="translate(-825.963 -860.142)" fill="#fff"/>
      <path id="Path_308" data-name="Path 308" d="M364.475,990.406c.442-1.728.859-3.351,1.272-4.977.294-1.157.291-1.158,1.639-.94-.734,2.6-1.48,5.2-2.186,7.8-.153.565-.554.349-.885.412-.509.1-.625-.232-.729-.614-.506-1.857-1.021-3.711-1.54-5.59-.416.21-.366.629-.46.948-.43,1.457-.83,2.923-1.219,4.391-.135.51-.216.9-.948.9-.716,0-.83-.365-.964-.88-.576-2.223-1.173-4.44-1.746-6.663-.07-.271-.407-.72.154-.779.411-.042,1.03-.355,1.208.474.382,1.782.825,3.552,1.263,5.409a2.756,2.756,0,0,0,.529-1.352c.368-1.23.718-2.465,1.036-3.708.148-.578.334-.906,1.058-.89.695.015.905.268,1.062.887C363.449,986.928,363.963,988.605,364.475,990.406Z" transform="translate(-234.137 -949.388)" fill="#fff"/>
      <path id="Path_309" data-name="Path 309" d="M837.727,991.638c-.784-.435-.813-.964-.415-1.732.386-.744.059-1.07-.774-1.062-.515.006-.374.5-.694.7-1.093-1.156-1.093-1.156-.486-1.693a1.9,1.9,0,0,0,.433-2.692,2.411,2.411,0,0,0-2.982-.368,1.773,1.773,0,0,0-.521,2.643c.378.562.235.739-.247,1.042a2.142,2.142,0,0,0-1.054,2.514,2.309,2.309,0,0,0,2,1.771,3.018,3.018,0,0,0,2.089-.227,1.266,1.266,0,0,1,1.816.112c.382.384.651-.01.917-.274C838.109,992.077,838.062,991.824,837.727,991.638Zm-3.641-5.949c.41.106.739.321.725.743a.8.8,0,0,1-.744.829.878.878,0,0,1-.755-.925C833.316,985.916,833.71,985.759,834.086,985.689Zm-.335,5.9a1.449,1.449,0,0,1-1.413-1.235c-.092-.427.692-1.336,1.068-1.311a7.978,7.978,0,0,1,1.6,1.881C834.744,991.434,834.2,991.44,833.751,991.587Z" transform="translate(-611.62 -949.485)" fill="#fff"/>
      <path id="Path_310" data-name="Path 310" d="M891.926,992.88c-.815,0-1.632-.024-2.446.009-.506.02-.723-.105-.716-.665q.041-3.5,0-6.994c-.006-.539.173-.692.7-.682,1.63.028,3.261.02,4.893,0,.432,0,.673.043.685.584.012.586-.246.657-.726.647-1.155-.022-2.311.018-3.465-.018-.54-.017-.681.164-.69.691-.025,1.552-.05,1.552,1.546,1.552.782,0,1.564.021,2.344-.008.463-.017.663.1.66.609,0,.49-.153.643-.643.627-1.053-.033-2.108.02-3.159-.022-.578-.023-.744.158-.749.737-.013,1.71-.042,1.71,1.694,1.71.917,0,1.836.023,2.752-.009.492-.017.63.15.636.633.007.523-.213.615-.665.6C893.693,992.862,892.809,992.88,891.926,992.88Z" transform="translate(-657.664 -949.571)" fill="#fff"/>
      <path id="Path_311" data-name="Path 311" d="M1103.3,994.718c-.788.235-1.489-.163-2.232-.219a2.471,2.471,0,0,0-2.187.84,4.133,4.133,0,0,0-.157,4.393c.715,1.074,1.86,1.329,3.509.784-.052.791-.288,1.123-.979,1.25a1.663,1.663,0,0,1-1.586-.433c-.309-.3-.876-.527-1.179-.227s-.049.817.229,1.18a.922.922,0,0,0,.215.214,3.668,3.668,0,0,0,3.3.306,2.062,2.062,0,0,0,1.427-2.118c.047-1.819.029-3.641.041-5.463C1103.709,994.941,1103.693,994.6,1103.3,994.718Zm-.835,3.061a1.7,1.7,0,0,1-1.566,1.787,1.806,1.806,0,0,1-1.4-2.042c.049-1.021.774-1.86,1.552-1.8A1.872,1.872,0,0,1,1102.468,997.779Z" transform="translate(-824.307 -957.483)" fill="#fff"/>
      <path id="Path_312" data-name="Path 312" d="M785.565,994.9a1.586,1.586,0,0,1-.378-.135,2.66,2.66,0,0,0-3.268.833,4.146,4.146,0,0,0,.147,4.395c.733.911,1.887,1.1,3.364.525a.734.734,0,0,1-.11.748,1.655,1.655,0,0,1-2.418.145c-.388-.268-.937-.592-1.252-.213-.286.345.008.9.363,1.256a1.109,1.109,0,0,0,.233.194,3.79,3.79,0,0,0,3.327.155,2.228,2.228,0,0,0,1.3-2.316c.029-1.417.016-2.835.02-4.25C786.9,994.922,786.9,994.926,785.565,994.9Zm.092,2.949a1.687,1.687,0,0,1-1.581,1.769,1.805,1.805,0,0,1-1.389-2.054c.057-1.031.782-1.857,1.566-1.783A1.884,1.884,0,0,1,785.657,997.845Z" transform="translate(-572.196 -957.532)" fill="#fff"/>
      <path id="Path_313" data-name="Path 313" d="M308.538,984.964c-.182-.439-.509-.372-.837-.368s-.662-.088-.837.364c-.968,2.481-1.964,4.954-2.947,7.432-.069.173-.2.476.082.484.545.014,1.258.359,1.481-.562.1-.425.321-.819.443-1.24a.724.724,0,0,1,.876-.6,4.091,4.091,0,0,0,1.119,0,1.392,1.392,0,0,1,1.852,1.254c.2,1.136.89,1.454,2.048,1.066C310.719,990.178,309.617,987.576,308.538,984.964Zm-1.221,2.491c.1-.245.2-.488.4-1,.415,1.07.735,1.889,1.064,2.735C306.563,989.4,306.563,989.4,307.317,987.456Z" transform="translate(-192.184 -949.606)" fill="#fff"/>
      <path id="Path_314" data-name="Path 314" d="M482,985.27c0-.515-.061-.784-.7-.791-.676-.008-.688.323-.666.807.024.531.006,1.064.006,1.6a1.19,1.19,0,0,1-.271-.025c-1.673-.715-3.1-.182-3.623,1.36-.7,2.052.1,4.087,1.781,4.527a2.536,2.536,0,0,0,1.3.014c.41-.108.708-.306,1.209,0,.435.272.995.137.97-.725C481.948,989.789,481.978,987.529,482,985.27Zm-2.653,6.333c-.768.008-1.47-.87-1.5-1.879a1.8,1.8,0,0,1,1.378-1.967c.815-.051,1.519.829,1.54,1.924A1.718,1.718,0,0,1,479.346,991.6Z" transform="translate(-329.589 -949.517)" fill="#fff"/>
      <path id="Path_315" data-name="Path 315" d="M961.451,996.542a2.429,2.429,0,0,0-2.9-2.034,5.242,5.242,0,0,1-1.942.18c-.619-.108-.5.382-.5.729,0,2.261,0,4.522-.006,6.78,0,.464-.043.825.649.827.676,0,.688-.316.668-.8-.024-.572-.006-1.146-.006-1.812,2.143.79,3.729,0,4.064-1.954A5.107,5.107,0,0,0,961.451,996.542Zm-2.759,3c-.8-.039-1.393-.882-1.364-1.95.027-1.027.7-1.891,1.476-1.893s1.442.9,1.43,1.922C960.222,998.7,959.513,999.583,958.692,999.542Z" transform="translate(-711.246 -957.459)" fill="#fff"/>
      <path id="Path_316" data-name="Path 316" d="M649.6,998.412c-.447-.061-.574.229-.8.47a1.454,1.454,0,0,1-2.3-.069c-.207-.255-.484-.564-.313-.9.133-.263.49-.1.745-.116.441-.02.884-.006,1.325-.006h.713c1.568,0,1.915-.594,1.185-2.04a2.269,2.269,0,0,0-.7-.858,3.043,3.043,0,0,0-3.272-.235c-1.309.652-1.534,1.9-1.454,3.2a2.627,2.627,0,0,0,1.654,2.563,3.167,3.167,0,0,0,3.756-.921C650.594,998.772,650.453,998.529,649.6,998.412ZM648.736,996a.641.641,0,0,1,.21.416c-.02.229-.255.155-.4.155-.772.008-1.544,0-2.445,0C646.873,995.457,648.009,995.257,648.736,996Z" transform="translate(-463.453 -957.324)" fill="#fff"/>
      <path id="Path_317" data-name="Path 317" d="M1102.829,846.912c-2.9-.028-2.492.367-2.517-2.526-.019-2.1-.148-1.963,1.977-1.953.745,0,1.489.015,2.233,0,.648-.016.918.28.9.915-.02.874-.026,1.75,0,2.624.022.7-.289.98-.974.949C1103.912,846.892,1103.37,846.912,1102.829,846.912Z" transform="translate(-826.004 -836.476)" fill="#fff"/>
      <path id="Path_318" data-name="Path 318" d="M1003.393,994.537c-1.977-.035-3.029,1.025-3.043,3.072-.014,2.067.956,3.19,2.788,3.221,1.983.032,3-1,3.029-3.069S1005.214,994.57,1003.393,994.537Zm-.143,5.071a1.957,1.957,0,0,1,.039-3.85,1.961,1.961,0,0,1-.039,3.85Z" transform="translate(-746.462 -957.52)" fill="#fff"/>
      <path id="Path_319" data-name="Path 319" d="M413.674,994.54c-1.914-.012-2.947,1.05-2.965,3.047-.022,2.116.966,3.235,2.863,3.245,1.954.01,2.943-1.041,2.953-3.145C416.535,995.655,415.534,994.55,413.674,994.54Zm-.012,5.071a1.957,1.957,0,0,1-.069-3.849,1.961,1.961,0,0,1,.069,3.849Z" transform="translate(-277.239 -957.523)" fill="#fff"/>
      <path id="Path_320" data-name="Path 320" d="M528.618,994.54c-1.918-.016-2.957,1.041-2.979,3.031-.025,2.122.958,3.247,2.847,3.261,1.96.015,2.955-1.035,2.969-3.13C531.467,995.667,530.468,994.554,528.618,994.54Zm-.079,5.071a1.957,1.957,0,0,1,.037-3.85,1.961,1.961,0,0,1-.037,3.85Z" transform="translate(-368.697 -957.523)" fill="#fff"/>
      <path id="Path_321" data-name="Path 321" d="M709.65,988.764c1.232-.819,1.767-2.529,3.615-1.91a5.822,5.822,0,0,1-1.54,1.634c-.475.444-.587.751-.145,1.314.719.917,1.329,1.918,2.015,2.927-1.033.311-1.73.141-2.176-.793a9.135,9.135,0,0,0-.9-1.348c-.122-.17-.17-.509-.484-.394a.6.6,0,0,0-.393.642c.019.438-.02.878.01,1.315.033.479-.053.727-.641.724s-.656-.233-.651-.72c.019-2.327.027-4.655,0-6.982-.008-.569.219-.646.712-.658.55-.014.592.246.585.675C709.638,986.331,709.65,987.471,709.65,988.764Z" transform="translate(-514.103 -949.546)" fill="#fff"/>
      <path id="Path_322" data-name="Path 322" d="M679.68,988.771c1.218-.785,1.781-2.524,3.63-1.889-.182.5-.65.751-.991,1.09-1.16,1.155-1.169,1.144-.214,2.531.494.717.981,1.439,1.52,2.231-.92.253-1.621.276-2.085-.648a12.518,12.518,0,0,0-1.009-1.516c-.119-.169-.165-.505-.5-.347a.58.58,0,0,0-.357.563c.011.506-.034,1.015.01,1.517.049.562-.266.554-.681.576-.514.027-.617-.187-.614-.648q.028-3.541,0-7.083c-.005-.5.177-.619.646-.618s.667.1.652.61C679.656,986.306,679.68,987.474,679.68,988.771Z" transform="translate(-490.256 -949.558)" fill="#fff"/>
      <path id="Path_323" data-name="Path 323" d="M1068.014,997.563c0-.811.029-1.624-.01-2.433-.025-.526.23-.709.66-.578a2.742,2.742,0,0,0,1.612-.146,2.057,2.057,0,0,1,2.868,2.114c.028,1.149-.01,2.3.035,3.447.021.549-.178.68-.7.678s-.725-.129-.7-.679c.04-1.013,0-2.028.014-3.042.01-.69-.218-1.264-.949-1.335a1.265,1.265,0,0,0-1.43,1.152,16.423,16.423,0,0,0-.078,3.136c0,.528-.077.78-.7.774s-.634-.3-.623-.754C1068.027,999.119,1068.014,998.341,1068.014,997.563Z" transform="translate(-800.298 -957.319)" fill="#fff"/>
      <path id="Path_324" data-name="Path 324" d="M751.168,997.586c0-.778.049-1.559-.015-2.331-.057-.69.287-.886.825-.713a1.983,1.983,0,0,0,1.314-.116,2.1,2.1,0,0,1,3.008,2.135c.026,1.148-.008,2.3.033,3.447.018.516-.19.621-.654.613s-.773-.024-.746-.634c.045-1.046,0-2.1.012-3.143.007-.705-.276-1.236-1.005-1.282a1.231,1.231,0,0,0-1.334,1.021,14.818,14.818,0,0,0-.116,3.333c-.006.5-.089.717-.662.713s-.691-.205-.668-.711C751.194,999.142,751.168,998.363,751.168,997.586Z" transform="translate(-548.152 -957.3)" fill="#fff"/>
      <path id="Path_325" data-name="Path 325" d="M926.125,999.557c-1.421,1.916-1.421,1.916-2.783,1.8a4.5,4.5,0,0,1,1.02-1.695c.96-1.374.969-1.364.025-2.7-.343-.486-.667-.985-1-1.482,1.712-.728,2.05.71,2.745,1.593.8-.773,1.1-2.316,2.84-1.587-.5.727-.96,1.463-1.5,2.135a.879.879,0,0,0-.027,1.3c.585.731,1.084,1.531,1.636,2.324C928.148,1001.474,928.148,1001.474,926.125,999.557Z" transform="translate(-685.181 -958.106)" fill="#fff"/>
      <path id="Path_326" data-name="Path 326" d="M593.516,989.357c0-.945-.028-1.891.01-2.835.023-.56-.135-.808-.734-.746-.436.045-.882,0-1.323.012-.406.012-.7.005-.708-.563s.21-.672.712-.666q2.749.033,5.5,0c.469-.005.659.114.66.618s-.2.612-.661.622c-.665.014-1.539-.322-1.943.15-.422.493-.118,1.359-.129,2.061q-.033,2.126,0,4.253c.008.478-.132.665-.63.637-.429-.024-.8.027-.767-.606C593.55,991.316,593.517,990.336,593.516,989.357Z" transform="translate(-420.521 -949.58)" fill="#fff"/>
      <path id="Path_327" data-name="Path 327" d="M559.44,990.107c0,.473.014.947,0,1.419-.017.422.21.935-.62.95-.8.014-.675-.437-.675-.9,0-.912.042-1.827-.016-2.736-.032-.494.417-1.276-.677-1.328-.3-.014-.188-1.1.157-1.119.582-.028.525-.373.558-.743a1.839,1.839,0,0,1,2.613-1.46c.3.151.251.365.212.594-.043.257-.035.56-.435.561a2.208,2.208,0,0,0-.7.066.667.667,0,0,0-.39.661c-.018.394.319.292.516.277.473-.036.656.107.653.615,0,.493-.163.681-.644.615s-.565.2-.551.6C559.456,988.822,559.44,989.465,559.44,990.107Z" transform="translate(-393.874 -949.139)" fill="#fff"/>
      <path id="Path_328" data-name="Path 328" d="M444.409,997.758c0-.81-.007-1.62,0-2.43,0-.212-.078-.605.254-.54.826.162,1.571-.334,2.363-.215.386.058.961.06.8.75-.118.522-.249.791-.955.542s-1.014.443-1.066,1.023c-.093,1.038-.076,2.087-.1,3.131-.009.428.112.835-.616.852-.769.017-.7-.4-.7-.885C444.416,999.243,444.408,998.5,444.409,997.758Z" transform="translate(-304.051 -957.535)" fill="#fff"/>
      <path id="Path_329" data-name="Path 329" d="M1033.981,997.551c0-.709.056-1.423-.015-2.124-.079-.782.293-.983.933-.809s1.121-.4,1.759-.229.98.41.652,1.114c-.137.3-.278.427-.618.284-.99-.415-1.236.326-1.311.99a27.034,27.034,0,0,0-.085,3.131c0,.489,0,.8-.673.8-.7,0-.654-.372-.647-.831C1033.991,999.1,1033.981,998.328,1033.981,997.551Z" transform="translate(-773.206 -957.377)" fill="#fff"/>
      <path id="Path_330" data-name="Path 330" d="M626.29,997.77c0-.81-.008-1.62.006-2.43,0-.21-.092-.608.236-.554.855.142,1.637-.358,2.464-.211.356.063.884.1.727.726-.123.487-.209.84-.944.563-.7-.264-1.024.423-1.078,1-.1,1.038-.074,2.087-.1,3.13-.012.41.153.854-.6.868s-.731-.352-.716-.867C626.306,999.255,626.29,998.513,626.29,997.77Z" transform="translate(-448.786 -957.53)" fill="#fff"/>
      <path id="Path_331" data-name="Path 331" d="M465.675,988.712c0,1.181-.022,2.362.011,3.542.013.492-.149.64-.634.623-.43-.015-.684-.049-.678-.589q.038-3.592,0-7.185c-.006-.563.286-.548.7-.572.509-.03.627.172.615.64C465.657,986.35,465.675,987.531,465.675,988.712Z" transform="translate(-319.944 -949.556)" fill="#fff"/>
      <path id="Path_332" data-name="Path 332" d="M989.351,988.774c0,1.147-.013,2.294.007,3.441.007.429-.034.692-.584.671-.477-.018-.734-.063-.727-.648.031-2.361.026-4.722,0-7.083-.005-.5.18-.623.649-.618.445,0,.68.061.663.6C989.325,986.345,989.351,987.56,989.351,988.774Z" transform="translate(-736.673 -949.563)" fill="#fff"/>
      <path id="Path_333" data-name="Path 333" d="M738.645,998.584c0,.808-.021,1.616.008,2.422.016.438-.125.608-.574.574-.372-.028-.732.063-.721-.533q.046-2.523,0-5.047c-.01-.606.369-.489.73-.522.463-.043.576.159.563.582C738.627,996.9,738.645,997.743,738.645,998.584Z" transform="translate(-537.179 -958.266)" fill="#fff"/>
      <path id="Path_334" data-name="Path 334" d="M1055.457,998.555c0,.774-.028,1.549.01,2.321.025.515-.125.7-.671.691-.492-.01-.632-.163-.625-.639q.037-2.422,0-4.845c-.007-.474.13-.63.623-.641.546-.012.7.168.674.69C1055.428,996.938,1055.457,997.748,1055.457,998.555Z" transform="translate(-789.292 -958.241)" fill="#fff"/>
      <path id="Path_335" data-name="Path 335" d="M1055.421,985.187c.111.54-.2.565-.633.593-.575.037-.636-.226-.65-.7-.017-.59.338-.5.711-.536C1055.372,984.494,1055.5,984.734,1055.421,985.187Z" transform="translate(-789.266 -949.56)" fill="#fff"/>
      <path id="Path_336" data-name="Path 336" d="M737.958,984.552c.518-.1.683.074.7.569.019.573-.229.634-.71.645-.526.013-.6-.214-.6-.655C737.349,984.622,737.521,984.427,737.958,984.552Z" transform="translate(-537.173 -949.546)" fill="#fff"/>
    </g>
  </g>
</svg>
