<svg xmlns="http://www.w3.org/2000/svg" width="36.542" height="42" viewBox="0 0 36.542 42">
  <g id="noun_Award_2310643" transform="translate(-8.673 -2.5)">
    <path id="Path_510" data-name="Path 510" d="M35.668,27.24l4.676-.82,1.857-4,2.391,4,4.609.82-3.088,3.322.487,4.574h-.487L42.2,33.5l-4.109,2.08.617-5.013Z" transform="translate(-15.362 -11.411)" fill="#ff7d72"/>
    <path id="Path_508" data-name="Path 508" d="M56.168,65.028l6.085,10.723h.871l1.743-5.968,5.762,1.553.795-.84L64.868,59.635l-1.743.691-.871,1.995-.946,1.017-1.572.577h-2.82Z" transform="translate(-26.497 -31.875)" fill="none"/>
    <path id="Path_509" data-name="Path 509" d="M71.424,65.028,65.339,75.751h-.871l-1.743-5.968-5.762,1.553-.795-.84,6.556-10.861,1.743.691.871,1.995.946,1.017,1.572.577h2.82Z" transform="translate(-47.276 -31.433)" fill="none"/>
    <path id="Path_505" data-name="Path 505" d="M45.05,38.159,39.085,27.825a5.741,5.741,0,0,0,2.148-5.745,5.742,5.742,0,0,0,0-7.657A5.735,5.735,0,0,0,37.4,7.791a5.743,5.743,0,0,0-6.632-3.828,5.742,5.742,0,0,0-7.657,0,5.738,5.738,0,0,0-6.632,3.829,5.741,5.741,0,0,0-3.828,6.632,5.742,5.742,0,0,0,0,7.657A5.739,5.739,0,0,0,14.8,27.825L8.838,38.159a1.227,1.227,0,0,0,1.38,1.8l4.962-1.329,1.33,4.962a1.222,1.222,0,0,0,1.026.9,1.243,1.243,0,0,0,.162.011,1.222,1.222,0,0,0,1.061-.613l5.964-10.335a5.693,5.693,0,0,0,4.441,0l5.966,10.335a1.222,1.222,0,0,0,1.061.613,1.241,1.241,0,0,0,.162-.011,1.222,1.222,0,0,0,1.026-.9l1.329-4.962,4.962,1.329a1.227,1.227,0,0,0,1.38-1.8ZM17.813,43.341a.123.123,0,0,1-.136.067.127.127,0,0,1-.114-.1l-1.47-5.489a.544.544,0,0,0-.253-.332.552.552,0,0,0-.414-.054L9.936,38.9a.125.125,0,0,1-.144-.048.128.128,0,0,1-.01-.152L15.731,28.4a5.719,5.719,0,0,0,.752.313,5.742,5.742,0,0,0,6.632,3.829,5.68,5.68,0,0,0,.647.5Zm6.96-10.964h0a4.632,4.632,0,0,1-1.111-.821.546.546,0,0,0-.527-.141,4.647,4.647,0,0,1-5.685-3.282.544.544,0,0,0-.386-.386A4.619,4.619,0,0,1,15.8,27.2h0a4.65,4.65,0,0,1-2.016-5.133.545.545,0,0,0-.141-.527,4.648,4.648,0,0,1,0-6.565.543.543,0,0,0,.141-.527,4.648,4.648,0,0,1,3.282-5.685.542.542,0,0,0,.386-.386,4.65,4.65,0,0,1,5.685-3.282.55.55,0,0,0,.527-.141,4.648,4.648,0,0,1,6.565,0,.55.55,0,0,0,.527.141,4.65,4.65,0,0,1,5.685,3.282.542.542,0,0,0,.386.386,4.642,4.642,0,0,1,3.282,5.685.543.543,0,0,0,.141.527,4.648,4.648,0,0,1,0,6.565.544.544,0,0,0-.141.527,4.647,4.647,0,0,1-3.284,5.682.544.544,0,0,0-.386.386,4.646,4.646,0,0,1-5.685,3.284.548.548,0,0,0-.527.141,4.632,4.632,0,0,1-1.111.821h0a4.665,4.665,0,0,1-4.342,0ZM44.1,38.856a.127.127,0,0,1-.144.048l-5.491-1.47a.544.544,0,0,0-.668.386l-1.47,5.487a.137.137,0,0,1-.25.033l-5.948-10.3a5.68,5.68,0,0,0,.647-.5,5.738,5.738,0,0,0,6.632-3.829,5.658,5.658,0,0,0,.752-.313L44.106,38.7A.128.128,0,0,1,44.1,38.856Z" transform="translate(0 0)" fill="#fff"/>
    <path id="Path_507" data-name="Path 507" d="M45.084,35.355a.813.813,0,0,0,.388.1.834.834,0,0,0,.635-.3.807.807,0,0,0,.178-.666l-.706-4.117,2.991-2.915h0a.825.825,0,0,0-.458-1.406l-4.132-.6L42.132,21.7a.825.825,0,0,0-1.48,0l-1.848,3.744-4.134.6a.825.825,0,0,0-.456,1.407L37.2,30.37,36.5,34.487a.814.814,0,0,0,.181.669.839.839,0,0,0,1.016.2l3.7-1.943Zm-7.352-1.309.648-3.778a.57.57,0,0,0-.164-.506l-2.744-2.675,3.793-.552a.57.57,0,0,0,.429-.311l1.7-3.438,1.7,3.438a.571.571,0,0,0,.43.313l3.792.552-2.744,2.675a.569.569,0,0,0-.164.506l.648,3.778-3.392-1.783a.57.57,0,0,0-.532,0Z" transform="translate(-14.448 -10.779)" fill="#fff"/>
  </g>
</svg>
